<svg xmlns="http://www.w3.org/2000/svg" fill="#25D366" viewBox="0 0 24 24">
  <path d="M12.04 2C6.52 2 2 6.52 2 12.04c0 1.99.52 3.86 1.52 5.54L2 22l4.61-1.5A9.9 9.9 0 0 0 12.04 22c5.52 0 10.04-4.52 10.04-10.04S17.56 2 12.04 2zm5.78 14.44c-.24.67-1.38 1.27-1.9 1.32-.49.05-.9.23-3.08-.64-2.59-1.02-4.24-3.64-4.37-3.81-.12-.17-1.04-1.38-1.04-2.63 0-1.25.66-1.86.9-2.12.24-.26.52-.32.7-.32h.5c.16 0 .38-.06.6.46.24.56.81 1.93.88 2.07.07.14.12.3.02.48-.09.19-.14.3-.27.47-.14.16-.3.36-.42.48-.14.14-.3.29-.13.57.16.26.71 1.17 1.52 1.9 1.05.94 1.93 1.24 2.19 1.38.27.13.43.12.58-.07.14-.17.67-.78.85-1.05.18-.26.35-.22.58-.13.24.09 1.54.73 1.8.86.26.13.43.19.5.3.08.1.08.67-.16 1.34z"/>
</svg>
